<mxfile host="app.diagrams.net" modified="2024-05-05T06:58:53.375Z" agent="Mozilla/5.0 (Windows NT 10.0; Win64; x64) AppleWebKit/537.36 (KHTML, like Gecko) Chrome/124.0.0.0 Safari/537.36 Edg/124.0.0.0" etag="ML2LMryFRrTpH4Wlly4-" version="24.3.1" type="github">
  <diagram id="C5RBs43oDa-KdzZeNtuy" name="Page-1">
    <mxGraphModel dx="996" dy="586" grid="0" gridSize="10" guides="1" tooltips="1" connect="1" arrows="1" fold="1" page="0" pageScale="1" pageWidth="827" pageHeight="1169" math="0" shadow="0">
      <root>
        <mxCell id="WIyWlLk6GJQsqaUBKTNV-0" />
        <mxCell id="WIyWlLk6GJQsqaUBKTNV-1" parent="WIyWlLk6GJQsqaUBKTNV-0" />
        <mxCell id="ftxwQL2Iipffh_ABrtp8-5" value="" style="edgeStyle=orthogonalEdgeStyle;rounded=0;orthogonalLoop=1;jettySize=auto;html=1;" edge="1" parent="WIyWlLk6GJQsqaUBKTNV-1" source="ftxwQL2Iipffh_ABrtp8-0" target="ftxwQL2Iipffh_ABrtp8-2">
          <mxGeometry relative="1" as="geometry" />
        </mxCell>
        <mxCell id="ftxwQL2Iipffh_ABrtp8-0" value="开始" style="strokeWidth=2;html=1;shape=mxgraph.flowchart.terminator;whiteSpace=wrap;fontSize=14;" vertex="1" parent="WIyWlLk6GJQsqaUBKTNV-1">
          <mxGeometry x="170" y="20" width="100" height="60" as="geometry" />
        </mxCell>
        <mxCell id="ftxwQL2Iipffh_ABrtp8-1" value="结束" style="strokeWidth=2;html=1;shape=mxgraph.flowchart.terminator;whiteSpace=wrap;fontSize=14;" vertex="1" parent="WIyWlLk6GJQsqaUBKTNV-1">
          <mxGeometry x="170" y="596" width="100" height="60" as="geometry" />
        </mxCell>
        <mxCell id="ftxwQL2Iipffh_ABrtp8-6" value="" style="edgeStyle=orthogonalEdgeStyle;rounded=0;orthogonalLoop=1;jettySize=auto;html=1;" edge="1" parent="WIyWlLk6GJQsqaUBKTNV-1" source="ftxwQL2Iipffh_ABrtp8-2" target="ftxwQL2Iipffh_ABrtp8-4">
          <mxGeometry relative="1" as="geometry" />
        </mxCell>
        <mxCell id="ftxwQL2Iipffh_ABrtp8-2" value="进入复习页面" style="rounded=1;whiteSpace=wrap;html=1;absoluteArcSize=1;arcSize=14;strokeWidth=2;fontSize=14;" vertex="1" parent="WIyWlLk6GJQsqaUBKTNV-1">
          <mxGeometry x="165" y="120" width="110" height="50" as="geometry" />
        </mxCell>
        <mxCell id="ftxwQL2Iipffh_ABrtp8-3" value="进入登录页面" style="rounded=1;whiteSpace=wrap;html=1;absoluteArcSize=1;arcSize=14;strokeWidth=2;fontSize=14;" vertex="1" parent="WIyWlLk6GJQsqaUBKTNV-1">
          <mxGeometry x="2" y="220" width="110" height="50" as="geometry" />
        </mxCell>
        <mxCell id="ftxwQL2Iipffh_ABrtp8-7" value="" style="edgeStyle=orthogonalEdgeStyle;rounded=0;orthogonalLoop=1;jettySize=auto;html=1;" edge="1" parent="WIyWlLk6GJQsqaUBKTNV-1" source="ftxwQL2Iipffh_ABrtp8-4" target="ftxwQL2Iipffh_ABrtp8-3">
          <mxGeometry relative="1" as="geometry" />
        </mxCell>
        <mxCell id="ftxwQL2Iipffh_ABrtp8-8" value="否" style="edgeLabel;html=1;align=center;verticalAlign=middle;resizable=0;points=[];" vertex="1" connectable="0" parent="ftxwQL2Iipffh_ABrtp8-7">
          <mxGeometry x="0.2207" y="3" relative="1" as="geometry">
            <mxPoint as="offset" />
          </mxGeometry>
        </mxCell>
        <mxCell id="ftxwQL2Iipffh_ABrtp8-10" value="" style="edgeStyle=orthogonalEdgeStyle;rounded=0;orthogonalLoop=1;jettySize=auto;html=1;" edge="1" parent="WIyWlLk6GJQsqaUBKTNV-1" source="ftxwQL2Iipffh_ABrtp8-4" target="ftxwQL2Iipffh_ABrtp8-9">
          <mxGeometry relative="1" as="geometry" />
        </mxCell>
        <mxCell id="ftxwQL2Iipffh_ABrtp8-12" value="是" style="edgeLabel;html=1;align=center;verticalAlign=middle;resizable=0;points=[];" vertex="1" connectable="0" parent="ftxwQL2Iipffh_ABrtp8-10">
          <mxGeometry x="-0.008" y="-2" relative="1" as="geometry">
            <mxPoint as="offset" />
          </mxGeometry>
        </mxCell>
        <mxCell id="ftxwQL2Iipffh_ABrtp8-4" value="是否已登录" style="shape=rhombus;perimeter=rhombusPerimeter;whiteSpace=wrap;html=1;align=center;fontSize=14;" vertex="1" parent="WIyWlLk6GJQsqaUBKTNV-1">
          <mxGeometry x="170" y="210" width="100" height="70" as="geometry" />
        </mxCell>
        <mxCell id="ftxwQL2Iipffh_ABrtp8-14" value="" style="edgeStyle=orthogonalEdgeStyle;rounded=0;orthogonalLoop=1;jettySize=auto;html=1;" edge="1" parent="WIyWlLk6GJQsqaUBKTNV-1" source="ftxwQL2Iipffh_ABrtp8-9" target="ftxwQL2Iipffh_ABrtp8-13">
          <mxGeometry relative="1" as="geometry" />
        </mxCell>
        <mxCell id="ftxwQL2Iipffh_ABrtp8-9" value="点击开始学习" style="rounded=1;whiteSpace=wrap;html=1;absoluteArcSize=1;arcSize=14;strokeWidth=2;fontSize=14;" vertex="1" parent="WIyWlLk6GJQsqaUBKTNV-1">
          <mxGeometry x="165" y="330" width="110" height="50" as="geometry" />
        </mxCell>
        <mxCell id="ftxwQL2Iipffh_ABrtp8-16" value="" style="edgeStyle=orthogonalEdgeStyle;rounded=0;orthogonalLoop=1;jettySize=auto;html=1;" edge="1" parent="WIyWlLk6GJQsqaUBKTNV-1" source="ftxwQL2Iipffh_ABrtp8-13" target="ftxwQL2Iipffh_ABrtp8-15">
          <mxGeometry relative="1" as="geometry" />
        </mxCell>
        <mxCell id="ftxwQL2Iipffh_ABrtp8-13" value="选择单词记忆状态" style="rounded=1;whiteSpace=wrap;html=1;absoluteArcSize=1;arcSize=14;strokeWidth=2;fontSize=14;" vertex="1" parent="WIyWlLk6GJQsqaUBKTNV-1">
          <mxGeometry x="155" y="416" width="130" height="52" as="geometry" />
        </mxCell>
        <mxCell id="ftxwQL2Iipffh_ABrtp8-17" value="" style="edgeStyle=orthogonalEdgeStyle;rounded=0;orthogonalLoop=1;jettySize=auto;html=1;" edge="1" parent="WIyWlLk6GJQsqaUBKTNV-1" source="ftxwQL2Iipffh_ABrtp8-15" target="ftxwQL2Iipffh_ABrtp8-1">
          <mxGeometry relative="1" as="geometry" />
        </mxCell>
        <mxCell id="ftxwQL2Iipffh_ABrtp8-15" value="完成学习" style="rounded=1;whiteSpace=wrap;html=1;absoluteArcSize=1;arcSize=14;strokeWidth=2;fontSize=14;" vertex="1" parent="WIyWlLk6GJQsqaUBKTNV-1">
          <mxGeometry x="165" y="507" width="110" height="50" as="geometry" />
        </mxCell>
      </root>
    </mxGraphModel>
  </diagram>
</mxfile>
